<svg width="1640" height="660" viewBox="0 0 1640 660" fill="none" xmlns="http://www.w3.org/2000/svg" font-family="Inter, -apple-system, 'Segoe UI', sans-serif">
  <defs>
    <pattern id="dots" width="24" height="24" patternUnits="userSpaceOnUse">
      <circle cx="12" cy="12" r="1" fill="#232327"/>
    </pattern>
    <radialGradient id="glow" cx="0.5" cy="0.5" r="0.5">
      <stop offset="0%" stop-color="#FD366E" stop-opacity="0.09"/>
      <stop offset="100%" stop-color="#FD366E" stop-opacity="0"/>
    </radialGradient>
    <marker id="arrGray" markerWidth="10" markerHeight="10" refX="8" refY="4" orient="auto">
      <path d="M0 0 L8 4 L0 8 Z" fill="#55555B"/>
    </marker>
    <marker id="arrPink" markerWidth="10" markerHeight="10" refX="8" refY="4" orient="auto">
      <path d="M0 0 L8 4 L0 8 Z" fill="#FD366E"/>
    </marker>
  </defs>

  <rect width="1640" height="660" fill="#19191C"/>
  <rect width="1640" height="660" fill="url(#dots)"/>
  <ellipse cx="1430" cy="380" rx="400" ry="300" fill="url(#glow)"/>

  <!-- legend -->
  <line x1="60" y1="44" x2="100" y2="44" stroke="#FD366E" stroke-width="2"/>
  <text x="108" y="48" font-size="11" fill="#A5A5AA">token in flight</text>
  <line x1="212" y1="44" x2="252" y2="44" stroke="#55555B" stroke-width="2" stroke-dasharray="4 4"/>
  <text x="260" y="48" font-size="11" fill="#A5A5AA">no token yet</text>

  <!-- step 4 consent round trip -->
  <path d="M 170 218 C 290 92, 1210 78, 1398 172" stroke="#FD366E" stroke-width="1.6" marker-end="url(#arrPink)"/>
  <path d="M 1385 205 C 1190 120, 330 134, 230 216" stroke="#FD366E" stroke-width="1.4" stroke-dasharray="5 4" marker-end="url(#arrPink)"/>
  <text x="800" y="46" font-size="10" letter-spacing="2" font-weight="600" fill="#FD366E" text-anchor="middle">AUTHORIZATION</text>
  <text x="800" y="74" font-size="14" font-weight="600" fill="#EDEDF0" text-anchor="middle">User signs in + approves narrowed scopes</text>
  <circle cx="800" cy="98" r="10" fill="#19191C" stroke="#FD366E" stroke-width="1.5"/>
  <text x="800" y="102" font-size="10.5" font-weight="600" fill="#FD366E" text-anchor="middle">4</text>
  <text x="800" y="178" font-size="12" font-weight="600" fill="#FD8FAE" text-anchor="middle">&#8592; access token returned to MCP client</text>

  <!-- client card -->
  <rect x="56" y="220" width="230" height="360" rx="16" fill="#1D1D21" stroke="#2D2D31"/>
  <rect x="80" y="244" width="32" height="32" rx="8" fill="#232327" stroke="#313135"/>
  <g transform="translate(86.4 250.4) scale(0.8)" fill="none" stroke="#FD366E" stroke-width="1.5" stroke-linecap="round" stroke-linejoin="round">
    <path d="M3.49994 11.7501L11.6717 3.57855C12.7762 2.47398 14.5672 2.47398 15.6717 3.57855C16.7762 4.68312 16.7762 6.47398 15.6717 7.57855M15.6717 7.57855L9.49994 13.7501M15.6717 7.57855C16.7762 6.47398 18.5672 6.47398 19.6717 7.57855C20.7762 8.68312 20.7762 10.474 19.6717 11.5785L12.7072 18.543C12.3167 18.9335 12.3167 19.5667 12.7072 19.9572L13.9999 21.2499"/>
    <path d="M17.4999 9.74921L11.3282 15.921C10.2237 17.0255 8.43272 17.0255 7.32822 15.921C6.22373 14.8164 6.22373 13.0255 7.32822 11.921L13.4999 5.74939"/>
  </g>
  <text x="124" y="266" font-size="15.5" font-weight="600" fill="#EDEDF0">MCP client</text>

  <!-- client logos -->
  <rect x="115" y="322" width="44" height="44" rx="10" fill="#232327" stroke="#313135"/>
  <g transform="translate(125 332) scale(0.09375)">
    <path fill="#D97757" d="m50.228 170.321 50.357-28.257.843-2.463-.843-1.361h-2.462l-8.426-.518-28.775-.778-24.952-1.037-24.175-1.296-6.092-1.297L0 125.796l.583-3.759 5.12-3.434 7.324.648 16.202 1.101 24.304 1.685 17.629 1.037 26.118 2.722h4.148l.583-1.685-1.426-1.037-1.101-1.037-25.147-17.045-27.22-18.017-14.258-10.37-7.713-5.25-3.888-4.925-1.685-10.758 7-7.713 9.397.649 2.398.648 9.527 7.323 20.35 15.75L94.817 91.9l3.889 3.24 1.555-1.102.195-.777-1.75-2.917-14.453-26.118-15.425-26.572-6.87-11.018-1.814-6.61c-.648-2.723-1.102-4.991-1.102-7.778l7.972-10.823L71.42 0 82.05 1.426l4.472 3.888 6.61 15.101 10.694 23.786 16.591 32.34 4.861 9.592 2.592 8.879.973 2.722h1.685v-1.556l1.36-18.211 2.528-22.36 2.463-28.776.843-8.1 4.018-9.722 7.971-5.25 6.222 2.981 5.12 7.324-.713 4.73-3.046 19.768-5.962 30.98-3.889 20.739h2.268l2.593-2.593 10.499-13.934 17.628-22.036 7.778-8.749 9.073-9.657 5.833-4.601h11.018l8.1 12.055-3.628 12.443-11.342 14.388-9.398 12.184-13.48 18.147-8.426 14.518.778 1.166 2.01-.194 30.46-6.481 16.462-2.982 19.637-3.37 8.88 4.148.971 4.213-3.5 8.62-20.998 5.184-24.628 4.926-36.682 8.685-.454.324.519.648 16.526 1.555 7.065.389h17.304l32.21 2.398 8.426 5.574 5.055 6.805-.843 5.184-12.962 6.611-17.498-4.148-40.83-9.721-14-3.5h-1.944v1.167l11.666 11.406 21.387 19.314 26.767 24.887 1.36 6.157-3.434 4.86-3.63-.518-23.526-17.693-9.073-7.972-20.545-17.304h-1.36v1.814l4.73 6.935 25.017 37.59 1.296 11.536-1.814 3.76-6.481 2.268-7.13-1.297-14.647-20.544-15.1-23.138-12.185-20.739-1.49.843-7.194 77.448-3.37 3.953-7.778 2.981-6.48-4.925-3.436-7.972 3.435-15.749 4.148-20.544 3.37-16.333 3.046-20.285 1.815-6.74-.13-.454-1.49.194-15.295 20.999-23.267 31.433-18.406 19.702-4.407 1.75-7.648-3.954.713-7.064 4.277-6.286 25.47-32.405 15.36-20.092 9.917-11.6-.065-1.686h-.583L44.07 198.125l-12.055 1.555-5.185-4.86.648-7.972 2.463-2.593 20.35-13.999-.064.065Z"/>
  </g>
  <text x="137" y="382" font-size="10" fill="#A5A5AA" text-anchor="middle">Claude</text>

  <rect x="183" y="322" width="44" height="44" rx="10" fill="#232327" stroke="#313135"/>
  <g transform="translate(194.5 332) scale(0.0451)">
    <path fill="#EDEDF0" d="M457.43,125.94L244.42,2.96c-6.84-3.95-15.28-3.95-22.12,0L9.3,125.94c-5.75,3.32-9.3,9.46-9.3,16.11v247.99c0,6.65,3.55,12.79,9.3,16.11l213.01,122.98c6.84,3.95,15.28,3.95,22.12,0l213.01-122.98c5.75-3.32,9.3-9.46,9.3-16.11v-247.99c0-6.65-3.55-12.79-9.3-16.11h-.01ZM444.05,151.99l-205.63,356.16c-1.39,2.4-5.06,1.42-5.06-1.36v-233.21c0-4.66-2.49-8.97-6.53-11.31L24.87,145.67c-2.4-1.39-1.42-5.06,1.36-5.06h411.26c5.84,0,9.49,6.33,6.57,11.39h-.01Z"/>
  </g>
  <text x="205" y="382" font-size="10" fill="#A5A5AA" text-anchor="middle">Cursor</text>

  <rect x="115" y="432" width="44" height="44" rx="10" fill="#232327" stroke="#313135"/>
  <g transform="translate(125 442)">
    <path fill="#EDEDF0" fill-rule="evenodd" clip-rule="evenodd" d="M8.086.457a6.105 6.105 0 013.046-.415c1.333.153 2.521.72 3.564 1.7a.117.117 0 00.107.029c1.408-.346 2.762-.224 4.061.366l.063.03.154.076c1.357.703 2.33 1.77 2.918 3.198.278.679.418 1.388.421 2.126a5.655 5.655 0 01-.18 1.631.167.167 0 00.04.155 5.982 5.982 0 011.578 2.891c.385 1.901-.01 3.615-1.183 5.14l-.182.22a6.063 6.063 0 01-2.934 1.851.162.162 0 00-.108.102c-.255.736-.511 1.364-.987 1.992-1.199 1.582-2.962 2.462-4.948 2.451-1.583-.008-2.986-.587-4.21-1.736a.145.145 0 00-.14-.032c-.518.167-1.04.191-1.604.185a5.924 5.924 0 01-2.595-.622 6.058 6.058 0 01-2.146-1.781c-.203-.269-.404-.522-.551-.821a7.74 7.74 0 01-.495-1.283 6.11 6.11 0 01-.017-3.064.166.166 0 00.008-.074.115.115 0 00-.037-.064 5.958 5.958 0 01-1.38-2.202 5.196 5.196 0 01-.333-1.589 6.915 6.915 0 01.188-2.132c.45-1.484 1.309-2.648 2.577-3.493.282-.188.55-.334.802-.438.286-.12.573-.22.861-.304a.129.129 0 00.087-.087A6.016 6.016 0 015.635 2.31C6.315 1.464 7.132.846 8.086.457zm-.804 7.85a.848.848 0 00-1.473.842l1.694 2.965-1.688 2.848a.849.849 0 001.46.864l1.94-3.272a.849.849 0 00.007-.854l-1.94-3.393zm5.446 6.24a.849.849 0 000 1.695h4.848a.849.849 0 000-1.696h-4.848z"/>
  </g>
  <text x="137" y="492" font-size="10" fill="#A5A5AA" text-anchor="middle">Codex</text>

  <rect x="183" y="432" width="44" height="44" rx="10" fill="#232327" stroke="#313135"/>
  <g transform="translate(184.52 433.52) scale(0.08)">
    <path d="M320 224V352H192V224H320Z" fill="#55555B"/>
    <path fill-rule="evenodd" clip-rule="evenodd" d="M384 416H128V96H384V416ZM320 160H192V352H320V160Z" fill="#EDEDF0"/>
  </g>
  <text x="205" y="492" font-size="10" fill="#A5A5AA" text-anchor="middle">OpenCode</text>


  <!-- client <-> server arrows -->
  <text x="453" y="240" font-size="10" letter-spacing="2" font-weight="600" fill="#FD366E" text-anchor="middle">DISCOVERY</text>
  <text x="453" y="272" font-size="13" font-weight="600" fill="#EDEDF0" text-anchor="middle">POST / — no token</text>
  <line x1="290" y1="296" x2="614" y2="296" stroke="#55555B" stroke-width="1.5" stroke-dasharray="4 4" marker-end="url(#arrGray)"/>
  <circle cx="453" cy="296" r="10" fill="#19191C" stroke="#55555B" stroke-width="1.5"/>
  <text x="453" y="300" font-size="10.5" font-weight="600" fill="#A5A5AA" text-anchor="middle">1</text>

  <text x="453" y="344" font-size="13" font-weight="600" fill="#EDEDF0" text-anchor="middle">401 · full scope catalog</text>
  <line x1="614" y1="368" x2="292" y2="368" stroke="#FD366E" stroke-width="1.5" stroke-dasharray="4 4" marker-end="url(#arrPink)"/>
  <circle cx="453" cy="368" r="10" fill="#19191C" stroke="#FD366E" stroke-width="1.5"/>
  <text x="453" y="372" font-size="10.5" font-weight="600" fill="#FD366E" text-anchor="middle">2</text>

  <text x="453" y="416" font-size="12" font-weight="600" fill="#EDEDF0" text-anchor="middle" font-family="'SF Mono', ui-monospace, Menlo, monospace">/.well-known &#8594; auth server URL</text>
  <line x1="290" y1="440" x2="614" y2="440" stroke="#55555B" stroke-width="1.5" stroke-dasharray="4 4" marker-end="url(#arrGray)"/>
  <circle cx="453" cy="440" r="10" fill="#19191C" stroke="#55555B" stroke-width="1.5"/>
  <text x="453" y="444" font-size="10.5" font-weight="600" fill="#A5A5AA" text-anchor="middle">3</text>

  <text x="453" y="484" font-size="10" letter-spacing="2" font-weight="600" fill="#FD366E" text-anchor="middle">TOOL CALLS</text>
  <text x="453" y="510" font-size="13" font-weight="600" fill="#EDEDF0" text-anchor="middle">Bearer token · tool calls</text>
  <line x1="290" y1="534" x2="614" y2="534" stroke="#FD366E" stroke-width="1.6" marker-end="url(#arrPink)"/>
  <circle cx="453" cy="534" r="10" fill="#19191C" stroke="#FD366E" stroke-width="1.5"/>
  <text x="453" y="538" font-size="10.5" font-weight="600" fill="#FD366E" text-anchor="middle">5</text>

  <!-- MCP server card -->
  <rect x="620" y="180" width="420" height="404" rx="16" fill="#1D1D21" stroke="#2D2D31"/>
  <text x="644" y="216" font-size="17" font-weight="600" fill="#EDEDF0">Appwrite MCP server</text>
  <text x="644" y="236" font-size="10" fill="#A5A5AA" font-family="'SF Mono', ui-monospace, Menlo, monospace">mcp.appwrite.io/ · also at /mcp</text>

  <rect x="644" y="256" width="372" height="72" rx="12" fill="#232327" stroke="#313135"/>
  <text x="664" y="282" font-size="14" font-weight="600" fill="#EDEDF0">Verify token</text>
  <text x="664" y="306" font-size="12" fill="#A5A5AA">issuer · RS256 via JWKS · aud = / or /mcp</text>

  <rect x="644" y="344" width="372" height="216" rx="12" fill="#232327" stroke="#313135"/>
  <text x="664" y="370" font-size="14" font-weight="600" fill="#EDEDF0">4 public tools</text>

  <rect x="664" y="386" width="160" height="26" rx="7" fill="#19191C" stroke="#3A3A40"/>
  <text x="744" y="403" font-size="10.5" fill="#C9C9CD" text-anchor="middle" font-family="'SF Mono', ui-monospace, Menlo, monospace">get_context</text>
  <rect x="836" y="386" width="160" height="26" rx="7" fill="#19191C" stroke="#3A3A40"/>
  <text x="916" y="403" font-size="10.5" fill="#C9C9CD" text-anchor="middle" font-family="'SF Mono', ui-monospace, Menlo, monospace">search_tools</text>
  <rect x="664" y="420" width="160" height="26" rx="7" fill="#19191C" stroke="#FD366E" stroke-opacity="0.5"/>
  <text x="744" y="437" font-size="10.5" fill="#EDEDF0" text-anchor="middle" font-family="'SF Mono', ui-monospace, Menlo, monospace">call_tool</text>
  <rect x="836" y="420" width="160" height="26" rx="7" fill="#19191C" stroke="#3A3A40"/>
  <text x="916" y="437" font-size="10.5" fill="#C9C9CD" text-anchor="middle" font-family="'SF Mono', ui-monospace, Menlo, monospace">search_docs</text>

  <rect x="664" y="462" width="332" height="60" rx="10" fill="none" stroke="#3A3A40" stroke-dasharray="5 4"/>
  <text x="682" y="488" font-size="11.5" fill="#A5A5AA">hidden catalog · 25 services · 100s of tools</text>
  <text x="682" y="506" font-size="11.5" fill="#A5A5AA">writes need <tspan fill="#EDEDF0" font-size="11" font-family="'SF Mono', ui-monospace, Menlo, monospace">confirm_write: true</tspan></text>

  <!-- arrow 6 -->
  <text x="1210" y="440" font-size="10" letter-spacing="2" font-weight="600" fill="#FD366E" text-anchor="middle">SCOPED REST ACCESS</text>
  <text x="1210" y="466" font-size="13" font-weight="600" fill="#EDEDF0" text-anchor="middle">same bearer, forwarded</text>
  <line x1="1040" y1="490" x2="1374" y2="490" stroke="#FD366E" stroke-width="1.6" marker-end="url(#arrPink)"/>
  <circle cx="1210" cy="490" r="10" fill="#19191C" stroke="#FD366E" stroke-width="1.5"/>
  <text x="1210" y="494" font-size="10.5" font-weight="600" fill="#FD366E" text-anchor="middle">6</text>

  <!-- Appwrite Cloud card -->
  <rect x="1380" y="140" width="230" height="480" rx="16" fill="#1D1D21" stroke="#2D2D31"/>
  <text x="1400" y="176" font-size="17" font-weight="600" fill="#EDEDF0">Appwrite Cloud <tspan font-size="15">&#9729;&#65039;</tspan></text>
  <text x="1400" y="196" font-size="10" fill="#A5A5AA" font-family="'SF Mono', ui-monospace, Menlo, monospace">/v1/oauth2/&lt;project&gt;</text>

  <!-- consent panel -->
  <rect x="1400" y="214" width="190" height="196" rx="10" fill="#232327" stroke="#313135"/>
  <text x="1416" y="240" font-size="12" font-weight="600" fill="#EDEDF0">Authorize access</text>

  <rect x="1416" y="254" width="12" height="12" rx="3" fill="#FD366E"/>
  <path d="M 1418.5 260 L 1421.5 263 L 1425.5 257" stroke="#FFFFFF" stroke-width="1.4" fill="none"/>
  <text x="1436" y="264" font-size="10" fill="#C9C9CD" font-family="'SF Mono', ui-monospace, Menlo, monospace">openid · email</text>

  <rect x="1416" y="278" width="12" height="12" rx="3" fill="#FD366E"/>
  <path d="M 1418.5 284 L 1421.5 287 L 1425.5 281" stroke="#FFFFFF" stroke-width="1.4" fill="none"/>
  <text x="1436" y="288" font-size="10" fill="#C9C9CD" font-family="'SF Mono', ui-monospace, Menlo, monospace">project:users.read</text>

  <rect x="1416" y="302" width="12" height="12" rx="3" fill="#FD366E"/>
  <path d="M 1418.5 308 L 1421.5 311 L 1425.5 305" stroke="#FFFFFF" stroke-width="1.4" fill="none"/>
  <text x="1436" y="312" font-size="10" fill="#C9C9CD" font-family="'SF Mono', ui-monospace, Menlo, monospace">project:databases.write</text>

  <rect x="1416" y="326" width="12" height="12" rx="3" fill="none" stroke="#4A4A50"/>
  <text x="1436" y="336" font-size="10" fill="#6C6C71" font-family="'SF Mono', ui-monospace, Menlo, monospace">project:all</text>

  <rect x="1416" y="350" width="12" height="12" rx="3" fill="none" stroke="#4A4A50"/>
  <text x="1436" y="360" font-size="10" fill="#6C6C71" font-family="'SF Mono', ui-monospace, Menlo, monospace">all</text>

  <text x="1416" y="392" font-size="10.5" fill="#FD366E">the user narrows scopes here</text>

  <!-- REST API panel -->
  <rect x="1400" y="430" width="190" height="166" rx="10" fill="#232327" stroke="#313135"/>
  <text x="1416" y="456" font-size="13" font-weight="600" fill="#EDEDF0">REST API</text>
  <text x="1416" y="478" font-size="11.5" fill="#A5A5AA">enforces scopes per route</text>
  <text x="1416" y="496" font-size="11.5" fill="#A5A5AA">denied &#8594; 401</text>

  <rect x="1416" y="512" width="130" height="21" rx="6" fill="#19191C" stroke="#3A3A40"/>
  <text x="1481" y="526" font-size="9" fill="#C9C9CD" text-anchor="middle" font-family="'SF Mono', ui-monospace, Menlo, monospace">X-Appwrite-Project</text>
  <rect x="1416" y="540" width="160" height="21" rx="6" fill="#19191C" stroke="#3A3A40"/>
  <text x="1496" y="554" font-size="9" fill="#C9C9CD" text-anchor="middle" font-family="'SF Mono', ui-monospace, Menlo, monospace">X-Appwrite-Mode: admin</text>
</svg>
